# xmcd
#
# Track frame offsets: 
#        150
#        20826
#        36866
#        55345
#        72574
#        92906
#        108171
#        132831
#        150002
#        165785
#        180029
#        198231
#
# Disc length: 2919 seconds
#
# Revision: 0
# Processed by: cddbd v1.5.2PL0 Copyright (c) Steve Scherf et al.
# Submitted via: ExactAudioCopy v0.99pb4
#
DISCID=8c0b650c
DTITLE=Mike Blakely and John Arthur Martinez - Blakely - Martinez
DYEAR=2007
DGENRE=Country
TTITLE0=Midnight Blue
TTITLE1=Two Hearts Are Better Than One
TTITLE2=Change Your Mind
TTITLE3=I Could Live Without You
TTITLE4=Just A Broken Heart Away
TTITLE5=I Have A Right To Smile
TTITLE6=Sweet On You
TTITLE7=You Don't Have To Go Home
TTITLE8=She's Too Fine
TTITLE9=Rosalinda, Where Are You Tonight
TTITLE10=Bonus: Sister Moon (orig. demo)
TTITLE11=Bonus: Making Good Time (NASA version)
EXTD=
EXTT0=
EXTT1=
EXTT2=
EXTT3=
EXTT4=
EXTT5=
EXTT6=
EXTT7=
EXTT8=
EXTT9=
EXTT10=
EXTT11=
PLAYORDER=
